<svg width="28" height="28" viewBox="0 0 28 28" fill="none" xmlns="http://www.w3.org/2000/svg">
<path d="M13.0342 23.1232H10.1411C9.69656 23.1232 9.25632 23.0356 8.84557 22.8655C8.43482 22.6954 8.0616 22.446 7.74723 22.1316C7.43285 21.8172 7.18348 21.444 7.01334 21.0333C6.8432 20.6225 6.75563 20.1823 6.75563 19.7377V13.4869C6.7523 13.4499 6.73913 13.4143 6.71749 13.384C6.69585 13.3537 6.66652 13.3298 6.63252 13.3146C5.10237 12.4966 3.72069 11.427 2.54529 10.1507C2.35751 9.94537 2.21282 9.70449 2.11978 9.44228C2.02674 9.18007 1.98724 8.90186 2.0036 8.62412C2.01844 8.35111 2.08824 8.0839 2.20882 7.83851C2.3294 7.59313 2.49827 7.37461 2.70533 7.19605L7.19883 3.28116C7.43726 3.08852 7.71596 2.95198 8.01431 2.88166C8.31266 2.81134 8.623 2.80902 8.92236 2.8749C9.22131 2.93329 9.50304 3.05896 9.7462 3.2424C9.98936 3.42584 10.1876 3.66223 10.3258 3.93364C10.5302 4.35158 10.8004 4.73398 11.126 5.06625C11.9201 5.80083 12.962 6.20886 14.0437 6.20886C15.1254 6.20886 16.1674 5.80083 16.9614 5.06625C17.2578 4.78041 17.5108 4.45275 17.7124 4.09368C17.8595 3.8254 18.065 3.59357 18.3136 3.4153C18.5623 3.23704 18.8478 3.11688 19.1492 3.06371C19.4505 3.01054 19.7599 3.0257 20.0546 3.10808C20.3492 3.19047 20.6216 3.33796 20.8517 3.53969L25.3206 7.34378C25.5251 7.52546 25.6906 7.74683 25.807 7.99443C25.9234 8.24204 25.9883 8.51072 25.9977 8.78416C26.0111 9.0684 25.9667 9.35241 25.8672 9.61902C25.7678 9.88563 25.6153 10.1293 25.4191 10.3353C24.286 11.5257 22.9733 12.5309 21.5288 13.3146C21.4948 13.3298 21.4655 13.3537 21.4438 13.384C21.4222 13.4143 21.409 13.4499 21.4057 13.4869V19.75C21.4106 20.1946 21.3278 20.6358 21.1622 21.0484C20.9965 21.461 20.7512 21.837 20.4403 22.1548C20.1293 22.4726 19.7588 22.7261 19.3499 22.9007C18.941 23.0753 18.5017 23.1676 18.0571 23.1724" stroke="#3E3F40" stroke-width="2" stroke-linecap="round"/>
</svg>
